<!-- Raw rendered SVG copied from https://blog.alunadata.com/; aria-label: How per-cell probabilities become p_response. -->
<svg xmlns="http://www.w3.org/2000/svg" viewBox="0 0 700 250" class="mt-4 w-full" role="img" aria-label="How per-cell probabilities become p_response"><g><rect x="8" y="28" width="150" height="52" rx="12" fill="#ffffff" stroke="#e2e8f0" stroke-width="1.25"></rect><text x="83" y="53" font-size="13" fill="#142e4e" text-anchor="middle" font-weight="600">Per-cell field</text><text x="83" y="67" font-size="9" fill="#64748b" text-anchor="middle">red kill · blue escape</text></g><g stroke="#cbd5e1" stroke-width="1.6" fill="none"><line x1="158" y1="54" x2="191" y2="54"></line><path d="M189,50.5 L196,54 L189,57.5" fill="#cbd5e1" stroke="none"></path></g><g><rect x="198" y="28" width="176" height="52" rx="12" fill="#ffffff" stroke="#e2e8f0" stroke-width="1.25"></rect><text x="286" y="53" font-size="13" fill="#142e4e" text-anchor="middle" font-weight="600">Per-cell probability</text><text x="286" y="67" font-size="9" fill="#64748b" text-anchor="middle">pᵢ via MOA + modules</text></g><g stroke="#cbd5e1" stroke-width="1.6" fill="none"><line x1="374" y1="54" x2="407" y2="54"></line><path d="M405,50.5 L412,54 L405,57.5" fill="#cbd5e1" stroke="none"></path></g><g><rect x="414" y="28" width="186" height="52" rx="12" fill="#ffffff" stroke="#e2e8f0" stroke-width="1.25"></rect><text x="507" y="53" font-size="13" fill="#142e4e" text-anchor="middle" font-weight="600">Geometric mean</text><text x="507" y="67" font-size="9" fill="#64748b" text-anchor="middle">p_response = (∏ pᵢ)^(1/n)</text></g><text x="150" y="132" font-size="9" fill="#94a3b8" text-anchor="start" font-weight="600" letter-spacing="0.6">P_RESPONSE · TWO CRC PATIENTS</text><g><text x="20" y="169" font-size="11" fill="#142e4e" font-weight="600">P2</text><text x="20" y="180" font-size="8" fill="#d62f2f" font-weight="600" letter-spacing="0.4">PARTIAL RESPONSE</text><rect x="150" y="163" width="524" height="9" rx="4.5" fill="#eef2f6"></rect><rect x="150" y="163" width="367.84799999999996" height="9" rx="4.5" fill="#d62f2f" opacity="0.85"></rect><text x="525.848" y="171" font-size="11" fill="#d62f2f" font-weight="600">0.702</text></g><g><text x="20" y="197" font-size="11" fill="#142e4e" font-weight="600">P12</text><text x="20" y="208" font-size="8" fill="#2563eb" font-weight="600" letter-spacing="0.4">STABLE DISEASE</text><rect x="150" y="191" width="524" height="9" rx="4.5" fill="#eef2f6"></rect><rect x="150" y="191" width="140.43200000000002" height="9" rx="4.5" fill="#2563eb" opacity="0.85"></rect><text x="298.432" y="199" font-size="11" fill="#2563eb" font-weight="600">0.268</text></g><line x1="412" y1="150" x2="412" y2="210" stroke="#94a3b8" stroke-width="1.2" stroke-dasharray="4 3"></line><text x="150" y="228" font-size="9" fill="#94a3b8" text-anchor="start" font-weight="600" letter-spacing="0.6">0.0</text><text x="412" y="228" font-size="9" fill="#94a3b8" text-anchor="middle" font-weight="600" letter-spacing="0.6">RESPONDER LINE · 0.5</text><text x="674" y="228" font-size="9" fill="#94a3b8" text-anchor="end" font-weight="600" letter-spacing="0.6">1.0</text></svg>
