<!-- Raw rendered SVG copied from https://blog.alunadata.com/; aria-label: Gaia architecture diagram. -->
<svg xmlns="http://www.w3.org/2000/svg" viewBox="-44 0 884 300" class="mt-4 w-full" role="img" aria-label="Gaia architecture diagram"><rect x="30" y="92" width="13" height="5" rx="1.5" fill="#94a3b8" stroke="none" stroke-width="1.25"></rect><rect x="30" y="98.5" width="13" height="5" rx="1.5" fill="none" stroke="#cbd5e1" stroke-width="1.25"></rect><rect x="30" y="105" width="13" height="5" rx="1.5" fill="none" stroke="#cbd5e1" stroke-width="1.25"></rect><rect x="30" y="111.5" width="13" height="5" rx="1.5" fill="#94a3b8" stroke="none" stroke-width="1.25"></rect><rect x="30" y="118" width="13" height="5" rx="1.5" fill="none" stroke="#cbd5e1" stroke-width="1.25"></rect><rect x="30" y="124.5" width="13" height="5" rx="1.5" fill="none" stroke="#cbd5e1" stroke-width="1.25"></rect><rect x="30" y="131" width="13" height="5" rx="1.5" fill="#94a3b8" stroke="none" stroke-width="1.25"></rect><rect x="30" y="137.5" width="13" height="5" rx="1.5" fill="none" stroke="#cbd5e1" stroke-width="1.25"></rect><rect x="30" y="144" width="13" height="5" rx="1.5" fill="none" stroke="#cbd5e1" stroke-width="1.25"></rect><text x="36" y="162" font-size="9" fill="#94a3b8" text-anchor="middle" font-weight="600" letter-spacing="0.6">CELL · GENES MASKED</text><g stroke="#cbd5e1" stroke-width="1.6" fill="none"><line x1="50" y1="118" x2="87" y2="118"></line><path d="M85,114.5 L92,118 L85,121.5" fill="#cbd5e1" stroke="none"></path></g><g><rect x="94" y="94" width="118" height="48" rx="12" fill="#ffffff" stroke="#e2e8f0" stroke-width="1.25"></rect><text x="153" y="117" font-size="13" fill="#142e4e" text-anchor="middle" font-weight="600">Tx1 encoder</text><text x="153" y="131" font-size="9" fill="#64748b" text-anchor="middle">tuned backbone</text></g><g stroke="#cbd5e1" stroke-width="1.6" fill="none"><line x1="212" y1="118" x2="247" y2="118"></line><path d="M245,114.5 L252,118 L245,121.5" fill="#cbd5e1" stroke="none"></path></g><g><circle cx="264" cy="110" r="2.7" fill="#2563eb"></circle><circle cx="272" cy="110" r="2.7" fill="#2563eb"></circle><circle cx="280" cy="110" r="2.7" fill="#2563eb"></circle><circle cx="264" cy="118" r="2.7" fill="#2563eb"></circle><circle cx="272" cy="118" r="2.7" fill="#2563eb"></circle><circle cx="280" cy="118" r="2.7" fill="#2563eb"></circle><circle cx="264" cy="126" r="2.7" fill="#2563eb"></circle><circle cx="272" cy="126" r="2.7" fill="#2563eb"></circle><circle cx="280" cy="126" r="2.7" fill="#2563eb"></circle></g><text x="272" y="158" font-size="9" fill="#94a3b8" text-anchor="middle" font-weight="600" letter-spacing="0.6">CELL EMBEDDING</text><g stroke="#cbd5e1" stroke-width="1.6" fill="none"><line x1="296" y1="118" x2="331" y2="118"></line><path d="M329,114.5 L336,118 L329,121.5" fill="#cbd5e1" stroke="none"></path></g><text x="402" y="10" font-size="9" fill="#94a3b8" text-anchor="middle" font-weight="600" letter-spacing="0.6">NEIGHBOR CELLS → TX1 → EMBEDDINGS</text><rect x="356" y="16" width="92" height="15" rx="6" fill="#ffffff" stroke="#e2e8f0" stroke-width="1"></rect><text x="402" y="26.5" font-size="8" fill="#142e4e" text-anchor="middle" font-weight="600">Tx1 · shared</text><g><line x1="372" y1="31" x2="372" y2="41" stroke="#cbd5e1" stroke-width="1"></line><g><circle cx="364" cy="45" r="2.7" fill="#7aaeed"></circle><circle cx="372" cy="45" r="2.7" fill="#7aaeed"></circle><circle cx="380" cy="45" r="2.7" fill="#7aaeed"></circle><circle cx="364" cy="53" r="2.7" fill="#7aaeed"></circle><circle cx="372" cy="53" r="2.7" fill="#7aaeed"></circle><circle cx="380" cy="53" r="2.7" fill="#7aaeed"></circle><circle cx="364" cy="61" r="2.7" fill="#7aaeed"></circle><circle cx="372" cy="61" r="2.7" fill="#7aaeed"></circle><circle cx="380" cy="61" r="2.7" fill="#7aaeed"></circle></g><line x1="372" y1="65" x2="372" y2="92" stroke="#cbd5e1" stroke-width="1.1" stroke-dasharray="3 3"></line></g><g><line x1="402" y1="31" x2="402" y2="41" stroke="#cbd5e1" stroke-width="1"></line><g><circle cx="394" cy="45" r="2.7" fill="#7aaeed"></circle><circle cx="402" cy="45" r="2.7" fill="#7aaeed"></circle><circle cx="410" cy="45" r="2.7" fill="#7aaeed"></circle><circle cx="394" cy="53" r="2.7" fill="#7aaeed"></circle><circle cx="402" cy="53" r="2.7" fill="#7aaeed"></circle><circle cx="410" cy="53" r="2.7" fill="#7aaeed"></circle><circle cx="394" cy="61" r="2.7" fill="#7aaeed"></circle><circle cx="402" cy="61" r="2.7" fill="#7aaeed"></circle><circle cx="410" cy="61" r="2.7" fill="#7aaeed"></circle></g><line x1="402" y1="65" x2="402" y2="92" stroke="#cbd5e1" stroke-width="1.1" stroke-dasharray="3 3"></line></g><g><line x1="432" y1="31" x2="432" y2="41" stroke="#cbd5e1" stroke-width="1"></line><g><circle cx="424" cy="45" r="2.7" fill="#7aaeed"></circle><circle cx="432" cy="45" r="2.7" fill="#7aaeed"></circle><circle cx="440" cy="45" r="2.7" fill="#7aaeed"></circle><circle cx="424" cy="53" r="2.7" fill="#7aaeed"></circle><circle cx="432" cy="53" r="2.7" fill="#7aaeed"></circle><circle cx="440" cy="53" r="2.7" fill="#7aaeed"></circle><circle cx="424" cy="61" r="2.7" fill="#7aaeed"></circle><circle cx="432" cy="61" r="2.7" fill="#7aaeed"></circle><circle cx="440" cy="61" r="2.7" fill="#7aaeed"></circle></g><line x1="432" y1="65" x2="432" y2="92" stroke="#cbd5e1" stroke-width="1.1" stroke-dasharray="3 3"></line></g><g><rect x="338" y="94" width="128" height="48" rx="12" fill="#ffffff" stroke="#e2e8f0" stroke-width="1.25"></rect><text x="402" y="117" font-size="13" fill="#142e4e" text-anchor="middle" font-weight="600">Spatial predictor</text><text x="402" y="131" font-size="9" fill="#64748b" text-anchor="middle">over neighborhood</text></g><g stroke="#cbd5e1" stroke-width="1.6" fill="none"><line x1="466" y1="118" x2="501" y2="118"></line><path d="M499,114.5 L506,118 L499,121.5" fill="#cbd5e1" stroke="none"></path></g><g><circle cx="518" cy="110" r="2.7" fill="#2563eb"></circle><circle cx="526" cy="110" r="2.7" fill="#2563eb"></circle><circle cx="534" cy="110" r="2.7" fill="#2563eb"></circle><circle cx="518" cy="118" r="2.7" fill="#2563eb"></circle><circle cx="526" cy="118" r="2.7" fill="#2563eb"></circle><circle cx="534" cy="118" r="2.7" fill="#2563eb"></circle><circle cx="518" cy="126" r="2.7" fill="#2563eb"></circle><circle cx="526" cy="126" r="2.7" fill="#2563eb"></circle><circle cx="534" cy="126" r="2.7" fill="#2563eb"></circle></g><text x="526" y="158" font-size="9" fill="#94a3b8" text-anchor="middle" font-weight="600" letter-spacing="0.6">PREDICTED EMBEDDING</text><g stroke="#cbd5e1" stroke-width="1.6" fill="none"><line x1="550" y1="118" x2="585" y2="118"></line><path d="M583,114.5 L590,118 L583,121.5" fill="#cbd5e1" stroke="none"></path></g><g><rect x="592" y="94" width="96" height="48" rx="12" fill="#ffffff" stroke="#e2e8f0" stroke-width="1.25"></rect><text x="640" y="122" font-size="13" fill="#142e4e" text-anchor="middle" font-weight="600">Decoder</text></g><g stroke="#cbd5e1" stroke-width="1.6" fill="none"><line x1="688" y1="118" x2="723" y2="118"></line><path d="M721,114.5 L728,118 L721,121.5" fill="#cbd5e1" stroke="none"></path></g><rect x="732" y="92" width="13" height="5" rx="1.5" fill="#d62f2f"></rect><rect x="732" y="98.5" width="13" height="5" rx="1.5" fill="#94a3b8"></rect><rect x="732" y="105" width="13" height="5" rx="1.5" fill="#94a3b8"></rect><rect x="732" y="111.5" width="13" height="5" rx="1.5" fill="#2563eb"></rect><rect x="732" y="118" width="13" height="5" rx="1.5" fill="#d62f2f"></rect><rect x="732" y="124.5" width="13" height="5" rx="1.5" fill="#94a3b8"></rect><rect x="732" y="131" width="13" height="5" rx="1.5" fill="#2563eb"></rect><rect x="732" y="137.5" width="13" height="5" rx="1.5" fill="#94a3b8"></rect><rect x="732" y="144" width="13" height="5" rx="1.5" fill="#d62f2f"></rect><text x="738" y="162" font-size="9" fill="#94a3b8" text-anchor="middle" font-weight="600" letter-spacing="0.6">GENE READOUT</text><rect x="30" y="210" width="13" height="5" rx="1.5" fill="#94a3b8"></rect><rect x="30" y="216.5" width="13" height="5" rx="1.5" fill="#94a3b8"></rect><rect x="30" y="223" width="13" height="5" rx="1.5" fill="#94a3b8"></rect><rect x="30" y="229.5" width="13" height="5" rx="1.5" fill="#94a3b8"></rect><rect x="30" y="236" width="13" height="5" rx="1.5" fill="#94a3b8"></rect><rect x="30" y="242.5" width="13" height="5" rx="1.5" fill="#94a3b8"></rect><rect x="30" y="249" width="13" height="5" rx="1.5" fill="#94a3b8"></rect><rect x="30" y="255.5" width="13" height="5" rx="1.5" fill="#94a3b8"></rect><rect x="30" y="262" width="13" height="5" rx="1.5" fill="#94a3b8"></rect><text x="36" y="280" font-size="9" fill="#94a3b8" text-anchor="middle" font-weight="600" letter-spacing="0.6">FULL-GENE CELL</text><g stroke="#cbd5e1" stroke-width="1.6" fill="none"><line x1="50" y1="236" x2="87" y2="236"></line><path d="M85,232.5 L92,236 L85,239.5" fill="#cbd5e1" stroke="none"></path></g><g><rect x="94" y="212" width="118" height="48" rx="12" fill="#ffffff" stroke="#e2e8f0" stroke-width="1.25"></rect><text x="153" y="235" font-size="13" fill="#142e4e" text-anchor="middle" font-weight="600">Tx1 encoder</text><text x="153" y="249" font-size="9" fill="#64748b" text-anchor="middle">shared weights</text></g><g stroke="#cbd5e1" stroke-width="1.6" fill="none"><line x1="212" y1="236" x2="247" y2="236"></line><path d="M245,232.5 L252,236 L245,239.5" fill="#cbd5e1" stroke="none"></path></g><g><circle cx="264" cy="228" r="2.7" fill="#94a3b8"></circle><circle cx="272" cy="228" r="2.7" fill="#94a3b8"></circle><circle cx="280" cy="228" r="2.7" fill="#94a3b8"></circle><circle cx="264" cy="236" r="2.7" fill="#94a3b8"></circle><circle cx="272" cy="236" r="2.7" fill="#94a3b8"></circle><circle cx="280" cy="236" r="2.7" fill="#94a3b8"></circle><circle cx="264" cy="244" r="2.7" fill="#94a3b8"></circle><circle cx="272" cy="244" r="2.7" fill="#94a3b8"></circle><circle cx="280" cy="244" r="2.7" fill="#94a3b8"></circle></g><text x="272" y="276" font-size="9" fill="#94a3b8" text-anchor="middle" font-weight="600" letter-spacing="0.6">TARGET EMBEDDING</text><line x1="526" y1="132" x2="526" y2="236" stroke="#cbd5e1" stroke-width="1.2" stroke-dasharray="4 3"></line><line x1="526" y1="236" x2="300" y2="236" stroke="#cbd5e1" stroke-width="1.2" stroke-dasharray="4 3"></line><text x="413" y="206" font-size="13" fill="#142e4e" text-anchor="middle" font-weight="600">loss = 1 − cos</text><text x="413" y="220" font-size="9.5" fill="#64748b" text-anchor="middle">+ smooth-L1, de-anisotropized</text></svg>
