<!-- Raw rendered SVG copied from https://blog.alunadata.com/; aria-label: How a BioBench row is built and scored. -->
<svg xmlns="http://www.w3.org/2000/svg" viewBox="0 0 820 168" class="mt-4 w-full" role="img" aria-label="How a BioBench row is built and scored"><g><rect x="6" y="69" width="132" height="46" rx="11" fill="#ffffff" stroke="#e2e8f0" stroke-width="1.25"></rect><text x="72" y="91" font-size="12.5" fill="#142e4e" text-anchor="middle" font-weight="600">Sender program</text><text x="72" y="104" font-size="8.5" fill="#64748b" text-anchor="middle">ligand / module genes</text></g><g stroke="#cbd5e1" stroke-width="1.6" fill="none"><line x1="138" y1="92" x2="171" y2="92"></line><path d="M169,88.5 L176,92 L169,95.5" fill="#cbd5e1" stroke="none"></path></g><g><rect x="203.4" y="44" width="57.2" height="16" rx="8" fill="#ffffff" stroke="#2563eb" stroke-width="1"></rect><text x="232" y="55" font-size="8.5" fill="#2563eb" text-anchor="middle" font-weight="600">KO ↓ p25</text></g><g><rect x="200.7" y="124" width="62.6" height="16" rx="8" fill="#ffffff" stroke="#d62f2f" stroke-width="1"></rect><text x="232" y="135" font-size="8.5" fill="#d62f2f" text-anchor="middle" font-weight="600">OE ↑ mean</text></g><g><rect x="178" y="69" width="108" height="46" rx="11" fill="#ffffff" stroke="#e2e8f0" stroke-width="1.25"></rect><text x="232" y="91" font-size="12.5" fill="#142e4e" text-anchor="middle" font-weight="600">Perturb</text><text x="232" y="104" font-size="8.5" fill="#64748b" text-anchor="middle">in silico edit</text></g><g stroke="#cbd5e1" stroke-width="1.6" fill="none"><line x1="286" y1="92" x2="319" y2="92"></line><path d="M317,88.5 L324,92 L317,95.5" fill="#cbd5e1" stroke="none"></path></g><g><rect x="326" y="69" width="112" height="46" rx="11" fill="#ffffff" stroke="#e2e8f0" stroke-width="1.25"></rect><text x="382" y="91" font-size="12.5" fill="#142e4e" text-anchor="middle" font-weight="600">Gaia · forward</text><text x="382" y="104" font-size="8.5" fill="#64748b" text-anchor="middle">spatial rollout</text></g><g stroke="#cbd5e1" stroke-width="1.6" fill="none"><line x1="438" y1="92" x2="471" y2="92"></line><path d="M469,88.5 L476,92 L469,95.5" fill="#cbd5e1" stroke="none"></path></g><g><rect x="493.8" y="44" width="100.4" height="16" rx="8" fill="#ffffff" stroke="#64748b" stroke-width="1"></rect><text x="544" y="55" font-size="8.5" fill="#64748b" text-anchor="middle" font-weight="600">k = 20 neighbors</text></g><g><rect x="478" y="69" width="132" height="46" rx="11" fill="#ffffff" stroke="#e2e8f0" stroke-width="1.25"></rect><text x="544" y="91" font-size="12.5" fill="#142e4e" text-anchor="middle" font-weight="600">Receiver readout</text><text x="544" y="104" font-size="8.5" fill="#64748b" text-anchor="middle">PROGENy pathway</text></g><g stroke="#cbd5e1" stroke-width="1.6" fill="none"><line x1="610" y1="92" x2="643" y2="92"></line><path d="M641,88.5 L648,92 L641,95.5" fill="#cbd5e1" stroke="none"></path></g><g><rect x="668.5" y="44" width="95" height="16" rx="8" fill="#ffffff" stroke="#94a3b8" stroke-width="1"></rect><text x="716" y="55" font-size="8.5" fill="#94a3b8" text-anchor="middle" font-weight="600">vs matched null</text></g><g><rect x="650" y="69" width="138" height="46" rx="11" fill="#ffffff" stroke="#e2e8f0" stroke-width="1.25"></rect><text x="719" y="91" font-size="12.5" fill="#142e4e" text-anchor="middle" font-weight="600">Direction check</text><text x="719" y="104" font-size="8.5" fill="#64748b" text-anchor="middle">matches expectation?</text></g><text x="719" y="142" font-size="11" fill="#142e4e" text-anchor="middle" font-weight="600">✓ pass / ✗ violate</text></svg>
